<?xml version="1.0" encoding="UTF-8" standalone="no"?>
<!-- Created with Inkscape (http://www.inkscape.org/) -->
<svg
   xmlns:dc="http://purl.org/dc/elements/1.1/"
   xmlns:cc="http://web.resource.org/cc/"
   xmlns:rdf="http://www.w3.org/1999/02/22-rdf-syntax-ns#"
   xmlns:svg="http://www.w3.org/2000/svg"
   xmlns="http://www.w3.org/2000/svg"
   xmlns:sodipodi="http://sodipodi.sourceforge.net/DTD/sodipodi-0.dtd"
   xmlns:inkscape="http://www.inkscape.org/namespaces/inkscape"
   width="48"
   height="48"
   id="svg2"
   sodipodi:version="0.32"
   inkscape:version="0.45.1"
   version="1.0"
   sodipodi:docbase="/home/john/Programming/ienabler"
   sodipodi:docname="uclogo.svg"
   inkscape:output_extension="org.inkscape.output.svg.inkscape">
  <defs
     id="defs4" />
  <sodipodi:namedview
     id="base"
     pagecolor="#ffffff"
     bordercolor="#666666"
     borderopacity="1.0"
     gridtolerance="10000"
     guidetolerance="10"
     objecttolerance="10"
     inkscape:pageopacity="0"
     inkscape:pageshadow="2"
     inkscape:zoom="22.627417"
     inkscape:cx="28.792993"
     inkscape:cy="36.138735"
     inkscape:document-units="px"
     inkscape:current-layer="layer1"
     width="48px"
     height="48px"
     inkscape:window-width="1680"
     inkscape:window-height="975"
     inkscape:window-x="0"
     inkscape:window-y="25" />
  <metadata
     id="metadata7">
    <rdf:RDF>
      <cc:Work
         rdf:about="">
        <dc:format>image/svg+xml</dc:format>
        <dc:type
           rdf:resource="http://purl.org/dc/dcmitype/StillImage" />
      </cc:Work>
    </rdf:RDF>
  </metadata>
  <g
     inkscape:label="Layer 1"
     inkscape:groupmode="layer"
     id="layer1">
    <path
       style="fill:#ffffff;fill-rule:evenodd;stroke:#ffffff;stroke-width:0.2;stroke-linecap:butt;stroke-linejoin:miter;stroke-opacity:1;stroke-miterlimit:4;stroke-dasharray:none;fill-opacity:1"
       d="M 43.133514,1.3309525 L 43.266096,19.62734 L 37.874407,36.421126 L 26.428116,45.657709 L 22.45064,45.657709 L 9.7669124,34.520777 L 5.7452426,16.356972 L 5.7894368,1.2425642 L 43.133514,1.3309525 z "
       id="path5092" />
    <path
       style="fill:#000000"
       d="M 23.282106,46.895053 C 16.057277,44.485787 10.525059,38.351274 7.9491993,31.291826 C 5.598617,25.24727 5.2530888,18.687673 5.4037319,12.272256 C 5.4194142,8.4855211 5.4350965,4.6987867 5.4507788,0.91205229 C 18.155569,0.91205229 30.860416,0.91205229 43.565207,0.91205229 C 43.547578,7.4920709 43.600406,14.075976 43.538878,20.653579 C 42.823555,28.999354 39.666017,37.59599 32.973359,42.980547 C 30.503727,44.910774 27.665331,46.543962 24.576359,47.186539 C 24.127581,47.199389 23.700207,47.034678 23.282106,46.895053 z M 29.91312,40.651851 C 28.785477,39.292079 27.583771,37.960897 26.273491,36.778074 C 26.670129,37.750833 27.998381,38.290685 28.129964,39.324029 C 28.323533,40.178283 27.350023,40.377758 26.701208,40.259901 C 24.299457,40.278673 21.897706,40.297446 19.496011,40.31622 C 19.060968,41.097454 20.567794,40.62966 21.01022,40.753907 C 23.977853,40.753907 26.945486,40.753907 29.91312,40.753907 L 29.91312,40.651851 z M 32.230679,39.292309 C 32.403128,38.139534 30.121512,37.115056 31.127131,35.978484 C 32.137901,35.49989 35.465714,34.127597 32.893459,33.398486 C 31.555592,34.235571 29.998286,35.126455 29.6345,32.962762 C 27.692289,32.631371 29.643371,35.097557 28.198761,34.848757 C 25.593997,34.866838 22.989234,34.884919 20.384527,34.903004 C 20.511074,35.460908 19.990865,36.657628 20.984407,36.359222 C 23.785429,36.393895 26.586395,36.428574 29.387417,36.463247 C 29.919759,37.641406 30.779715,40.127493 32.204065,39.796074 C 32.212936,39.628152 32.221808,39.46023 32.230679,39.292309 z M 27.620516,39.687207 C 27.774077,38.54834 26.269427,37.795489 25.604815,36.887672 C 25.487655,37.292118 24.97254,38.121092 24.080075,37.732456 C 23.219719,37.718014 22.359363,37.703586 21.498949,37.689146 C 21.853349,36.848386 20.481598,36.296681 20.440217,37.088997 C 20.609118,38.146396 19.810861,40.27406 21.574042,39.840511 C 23.530963,39.876157 25.488284,39.857715 27.445377,39.86234 C 27.503757,39.803961 27.562136,39.745581 27.620516,39.687207 z M 24.84233,37.020476 C 24.604977,36.516785 23.463368,36.897048 22.858624,36.752512 C 21.872695,36.341731 21.590068,37.625712 22.715765,37.289994 C 23.385185,37.195877 24.373233,37.413473 24.84233,37.123378 L 24.84233,37.020476 z M 19.938725,35.291532 C 19.871415,33.993232 17.645319,34.115302 16.753884,33.399282 C 15.606666,32.70553 17.327608,32.038337 17.882043,32.898956 C 18.940031,33.294695 19.815727,34.217335 20.869651,34.512942 C 22.698366,34.842976 21.248604,33.602534 20.326434,33.204196 C 17.557692,31.550259 14.482457,30.181108 11.254348,29.832758 C 10.542002,30.345229 11.407108,31.00599 12.064795,30.936849 C 13.464877,30.937634 13.861802,31.533129 12.700847,32.274665 C 11.834538,32.289278 9.5620233,31.415042 10.015153,32.883857 C 12.896476,33.517421 15.910413,33.873319 18.563139,35.285478 C 19.019359,35.384625 20.19073,36.417173 19.938725,35.291532 z M 14.533625,32.711031 C 13.244179,32.607991 14.8997,31.102344 15.454879,31.889801 C 16.096884,32.175918 14.819972,33.178062 14.533625,32.711031 z M 36.794881,34.322968 C 37.1969,32.740684 34.803276,32.237034 33.735673,31.422585 C 33.132874,31.037933 32.285052,30.510856 31.638011,31.004924 C 30.837351,31.947859 32.071451,32.669393 32.835423,32.988603 C 34.091387,33.485844 35.493015,35.03373 36.794881,34.322968 L 36.794881,34.322968 z M 35.30311,33.677844 C 35.742846,32.27181 36.13004,34.504563 35.30311,33.677844 z M 33.646557,32.952706 C 32.619018,31.759277 35.860463,31.9943 34.233959,33.219849 C 34.003818,33.391377 33.782262,33.069516 33.646557,32.952706 z M 32.504205,31.986837 C 31.845316,30.832178 33.868572,31.811589 32.504205,31.986837 z M 28.892048,31.431629 C 29.247878,31.07264 28.977099,30.343134 29.578753,29.912562 C 29.636332,28.78063 29.438012,27.583871 29.751832,26.500613 C 31.106526,27.425719 31.135716,25.636565 31.161644,24.71384 C 30.887374,23.058175 30.429952,21.321484 29.605196,19.860423 C 28.442182,18.640419 27.362043,17.032483 25.57946,16.793069 C 25.585813,18.369384 25.470942,19.966846 25.550785,21.530328 C 26.239894,23.293399 26.162169,25.637807 27.99054,26.620898 C 28.179988,27.528622 27.995348,28.533342 28.042967,29.477839 C 27.208481,30.813943 27.324554,30.956247 28.073474,31.737166 C 28.358848,31.674082 28.643877,31.592773 28.892048,31.431629 z M 27.907149,30.536926 C 28.242317,29.732877 28.513324,28.932372 28.401372,28.049094 C 28.884207,26.550109 27.410579,26.009015 26.883959,24.937921 C 26.59704,23.922217 25.461041,20.984644 26.133666,21.107773 C 26.866731,22.804041 26.83943,24.886627 28.412819,26.138997 C 29.028153,26.61617 28.860054,27.522939 28.911337,28.218927 C 28.70489,29.049161 29.018137,30.298256 27.968276,30.61152 L 27.907149,30.536926 L 27.907149,30.536926 z M 29.614468,26.141481 C 29.213022,24.961255 29.914436,23.550345 29.466859,22.309633 C 29.036681,21.415847 29.23334,19.558915 29.721669,21.450806 C 30.230087,22.778251 29.816107,24.255354 29.86241,25.640291 C 29.776787,25.69902 29.861895,26.627285 29.614468,26.141481 z M 21.519497,31.449125 C 22.277116,30.422421 21.622864,28.718589 22.032552,27.481226 C 21.987393,26.736163 22.787423,26.389056 22.635579,25.599775 C 22.735282,24.246391 23.171871,22.93931 23.154987,21.579276 C 23.760876,21.136396 23.310722,20.197588 23.449289,19.535249 C 23.449289,18.584043 23.449289,17.632832 23.449289,16.681621 C 21.569921,17.411064 20.178997,18.972233 19.316409,20.76999 C 19.08329,21.681233 17.298704,23.588675 18.669997,23.98426 C 19.249844,23.49394 20.24888,24.417867 20.425336,23.466009 C 20.948864,24.319851 20.504549,25.640748 21.136767,26.583925 C 21.451387,27.211065 21.183242,28.077207 21.264115,28.800234 C 21.211687,29.567033 21.523389,30.679298 20.608201,30.952961 C 20.556633,29.888563 21.791592,27.203567 20.319166,26.990355 C 19.628281,27.626894 20.415892,29.777922 20.065557,30.907374 C 20.062809,31.178221 21.252782,31.717575 21.519497,31.449125 z M 19.404436,28.047124 C 19.300039,27.459654 20.651815,26.122266 19.579231,26.005851 C 18.947529,26.005485 18.307127,25.985292 17.942311,26.59572 C 18.374321,26.831151 19.243892,28.857188 19.404436,28.047124 z M 18.512429,26.864255 C 18.579737,25.795009 19.594685,26.755497 18.512429,26.864255 z M 17.654076,26.210237 C 18.928584,25.478305 16.624705,24.49752 17.511446,25.933036 C 17.409454,26.171083 17.453353,26.793661 17.654076,26.210237 z M 20.551654,26.210237 C 20.311954,25.667209 20.311896,26.753254 20.551654,26.210237 z M 19.83925,25.428258 C 20.636762,24.271167 19.430249,24.672837 18.868602,25.090394 C 18.336546,24.217109 16.936922,23.584056 18.093126,25.067129 C 18.326129,25.683143 19.437918,26.018362 19.83925,25.428258 z M 17.096836,24.60178 C 16.197503,23.185415 16.701285,25.630922 17.096836,24.60178 z M 19.329687,24.533825 C 19.640015,23.514087 18.074868,25.100611 19.329687,24.533825 L 19.329687,24.533825 z M 24.229401,18.854816 C 24.112127,18.266229 24.460917,17.211645 24.062218,16.904518 C 23.665922,17.314686 24.012938,18.471204 23.89658,19.158883 C 23.75355,19.917075 24.145037,21.635829 24.21927,19.929912 C 24.228314,19.571615 24.22923,19.213199 24.229401,18.854816 z M 25.12095,18.792516 C 24.957945,18.230462 25.465104,16.99828 24.833802,16.904518 C 24.732496,18.075951 24.78355,19.488435 24.857898,20.72779 C 25.324592,20.541805 25.023422,19.316525 25.12095,18.792516 z M 9.4628363,16.584431 C 10.830351,15.857003 11.845928,14.028271 13.594971,14.314372 C 15.244312,14.61142 16.347059,16.278739 17.941224,16.730827 C 18.734844,16.68003 19.602011,16.92752 20.273034,16.380239 C 21.681472,15.52235 23.101587,14.050415 24.877015,14.268658 C 26.985895,14.763608 28.396164,17.301797 30.772102,16.69067 C 32.511988,16.382322 33.274015,14.333173 35.086188,14.123104 C 36.777883,13.774502 38.091597,15.385307 39.335141,16.265483 C 40.365771,17.238724 42.785781,16.774405 42.84084,15.221855 C 42.84084,12.922303 42.84084,10.62275 42.84084,8.3231913 C 41.598097,8.1173171 41.478248,10.345137 40.500445,9.8748944 C 40.642732,8.7051031 39.341036,9.2086794 38.657937,9.1474665 C 37.955778,9.2012445 38.452979,10.454365 38.262157,11.019497 C 39.284202,11.14416 39.566485,12.419458 38.272173,12.58797 C 37.501104,13.264047 36.865281,13.999866 36.263397,12.584302 C 35.205809,12.295574 34.695102,11.124214 36.042642,11.064758 C 35.908541,10.429565 36.334884,9.5622025 35.775183,9.1033154 C 35.190757,9.274488 34.150225,8.7370574 33.891638,9.4254797 C 33.506561,11.098544 32.623654,8.838598 31.964593,8.4840331 C 30.957314,7.7046702 33.149529,7.0059972 33.362958,6.0427555 C 34.133627,5.8707701 33.621546,7.3565613 34.829318,6.8186786 C 35.738153,6.9952026 36.232033,6.7420523 36.023754,5.7618348 C 36.645612,4.5423006 34.673066,4.9860262 35.18469,3.9798411 C 35.868991,3.5070516 36.679381,2.9246972 37.152085,2.3529656 C 37.605958,3.0143042 38.215625,3.4739297 38.879265,3.8626811 C 39.835604,5.0648043 37.797524,4.3834908 38.273032,5.6155879 C 37.863745,6.9853754 38.867875,6.9772481 39.819292,6.8743968 C 40.709925,7.0709874 40.311226,5.3779484 41.338595,6.0771422 C 41.542065,7.0768655 43.18013,8.5332551 42.84084,6.6946274 C 42.84084,5.0919624 42.84084,3.4892973 42.84084,1.8866322 C 42.219841,1.3604826 41.26459,1.7628044 40.498785,1.6389536 C 29.113318,1.6566965 17.727852,1.6744336 6.342328,1.6921707 C 6.4294966,2.6432442 5.8337381,5.4833809 7.1654811,3.8215692 C 8.8408633,0.8076214 10.31701,6.5108287 12.069545,5.2229102 C 13.359793,4.0645202 14.798624,1.6113893 16.118405,4.05815 C 16.924216,4.5826169 16.994099,5.0976 16.130767,5.6005638 C 15.076098,6.6074414 14.018282,7.6111597 12.973343,8.6282022 C 12.973343,10.311821 12.973343,11.995439 12.973343,13.679058 C 11.988901,13.658327 11.004517,13.637596 10.020075,13.616866 C 9.9829303,11.890189 9.9457273,10.163519 9.9085813,8.4368429 C 8.7329753,7.2814176 7.6069352,6.0716534 6.3715748,4.9798219 C 6.2261408,8.5765305 6.3083879,12.179249 6.286638,15.778717 C 7.1468798,16.511622 8.3455523,17.059292 9.4628363,16.584431 z M 21.591613,13.236745 C 20.397863,13.514364 18.97689,12.807695 18.389659,12.770549 C 17.535199,13.312793 15.934509,11.782737 17.699234,11.459055 C 18.278224,11.149672 19.058794,12.274855 18.879992,10.852216 C 18.56766,10.10823 17.714631,11.631637 17.12471,10.36806 C 16.110105,9.5300365 18.572296,9.2342461 18.85063,9.4032095 C 19.307194,7.7721445 16.998392,9.5420272 16.863261,7.86522 C 17.499656,7.151477 18.284233,7.1972936 18.751098,7.342058 C 19.146478,5.5527841 17.816337,7.568096 17.127,6.257936 C 16.175525,5.4875304 18.561422,4.988968 18.768556,5.4170627 C 19.137206,3.8373489 21.731209,4.3935698 22.982423,3.5590095 C 23.717835,3.384729 24.390117,4.145399 25.121008,3.6894309 C 26.610204,3.1319507 27.935594,4.5130707 29.436067,4.4667219 C 30.395783,4.2173319 30.243137,5.169945 30.830597,5.4134741 C 31.267815,6.037444 30.546768,6.9690634 30.693233,7.1764429 C 31.134285,7.5371835 31.044713,8.7231379 30.358923,8.9357772 C 31.002817,9.1787683 31.161014,10.301627 30.697411,10.709489 C 29.861093,11.206152 31.439749,11.335057 30.916106,12.238121 C 30.967217,13.022314 29.858461,13.359721 29.143539,13.227193 C 26.625715,13.201116 24.10875,13.321602 21.591613,13.236745 z M 24.752128,12.71015 C 24.61568,11.168285 23.620478,13.436868 24.752128,12.71015 z M 22.067121,12.55965 C 22.656241,12.407365 23.692022,12.945815 23.83986,12.111214 C 23.929834,10.961352 21.384537,12.287704 20.33748,12.033272 C 19.082088,12.884069 21.147527,12.602021 21.746662,12.561265 L 22.067121,12.55965 L 22.067121,12.55965 z M 29.310607,12.541226 C 28.518876,11.695888 26.252543,11.849468 24.953824,11.651874 C 24.843819,12.731859 25.999622,12.769433 26.791296,12.669576 C 27.604662,12.669576 28.417971,12.669576 29.231279,12.669576 L 29.294353,12.567509 L 29.310607,12.541226 z M 19.826429,11.850646 C 20.204466,11.099723 19.88395,10.14383 19.976957,9.309287 C 19.964194,7.9228442 19.951488,6.5364013 19.938725,5.1499586 C 18.883484,4.8974207 19.445645,6.2717697 19.335696,6.8567741 C 19.37805,8.6086335 19.420462,10.360493 19.462816,12.112347 L 19.558913,12.112347 L 19.826429,11.850646 L 19.826429,11.850646 z M 29.801684,8.5925219 C 29.801684,7.4192451 29.801684,6.2459682 29.801684,5.0726914 C 29.180284,5.322791 29.675767,6.3855472 29.507324,6.9652172 C 29.492901,8.6201379 29.478478,10.275053 29.463997,11.929974 C 30.200497,12.344669 29.59352,9.1249389 29.801684,8.5925219 z M 22.803678,11.313908 C 24.066854,11.396865 24.536009,10.65645 24.21784,9.3885975 C 24.242451,7.7148065 24.241936,6.0407808 24.252811,4.3668697 C 23.297215,3.7833591 22.245694,4.1711433 21.342927,4.6124363 C 20.225071,4.527843 20.501917,5.5115234 20.483315,6.2777852 C 20.467861,8.0368963 20.452408,9.7960074 20.436954,11.555119 C 21.233723,11.584813 22.021848,11.45316 22.803678,11.313908 z M 28.965825,8.2291371 C 28.965825,7.1390456 28.965825,6.0489598 28.965825,4.9588739 C 27.609584,4.589073 26.296271,3.6475463 24.858356,4.28187 C 24.391548,4.7284116 24.782577,5.7377732 24.661182,6.4109137 C 24.669824,7.8841819 24.67841,9.3574559 24.687052,10.830725 C 25.999221,11.44054 27.513143,11.610814 28.965825,11.499395 C 28.965825,10.409309 28.965825,9.319223 28.965825,8.2291371 z M 24.049168,16.142639 C 24.080018,14.807405 25.123869,16.144151 25.243205,16.446592 C 26.584792,16.218705 24.585117,14.056991 23.84627,15.153024 C 22.84008,15.461274 23.964461,17.31594 24.049168,16.142639 z M 12.523647,13.01124 C 12.794369,12.061522 12.562911,10.985871 12.63909,9.9873612 C 12.716301,9.2432778 12.351371,8.3157393 13.148711,7.8704227 C 14.132637,6.8411947 15.24517,5.9118877 16.09448,4.7703476 C 15.316714,3.6448619 14.286084,3.0291853 13.43357,4.5773455 C 12.453707,5.7878252 11.267282,6.997658 10.24913,5.0946066 C 9.6328813,4.4840984 9.0205233,3.8696981 8.4061063,3.2574041 C 7.1032098,4.149331 6.8352356,5.3683271 8.4076523,6.3010225 C 9.0398123,7.0490665 9.9088113,7.6980596 10.406526,8.4989027 C 10.426386,10.049764 10.35633,11.606167 10.484422,13.152507 C 11.012472,13.093852 12.188652,13.505321 12.523647,13.01124 z M 11.26837,12.822021 C 11.4553,11.758807 10.865493,11.417584 10.744441,10.656559 C 10.983282,10.083287 11.889427,9.7910737 11.974993,10.556472 C 13.007913,10.992677 11.547391,11.232474 11.73598,11.833442 C 11.619164,12.198595 11.983292,13.130518 11.26837,12.822021 z M 11.356741,9.5212338 C 11.577553,8.4277597 10.94236,8.1728408 10.744441,7.5397819 C 10.990094,7.2231638 11.665981,6.1523948 11.924398,7.1716122 C 12.477917,7.7975511 11.596384,8.8098203 11.505666,9.6928014 L 11.426281,9.6507622 L 11.356741,9.5212338 L 11.356741,9.5212338 z M 9.3907193,6.1582041 C 9.0876603,5.3751667 7.9378673,6.1274002 8.0016273,5.2720179 C 7.6072778,4.3705499 8.4145203,4.3762333 8.9559063,4.3570596 C 9.4363363,4.8666455 9.3725763,5.7424321 10.276145,6.4773406 C 10.24438,6.9234071 9.4923113,6.1934265 9.3907193,6.1582041 z M 12.861906,6.4680342 C 13.597833,5.6608437 13.797527,5.2256575 13.835301,4.3656391 C 14.303712,4.4560017 15.206766,4.0322168 15.09035,4.8691696 C 15.303206,6.1482796 14.331071,5.4421145 13.872275,6.0330255 C 13.697995,6.2019031 12.854351,7.054521 12.861906,6.4680342 z M 37.468651,12.637004 C 37.588844,11.911355 39.436677,12.136294 37.946163,11.431646 C 37.565092,10.360173 37.249499,8.0652447 39.049482,8.6575294 C 39.791991,8.6727311 40.653549,8.4436023 40.986542,9.2992766 C 41.146628,8.9232771 41.695969,8.228456 42.060728,7.9960191 C 41.446883,7.9083752 41.235056,5.9429262 40.649256,7.1100275 C 40.142097,7.4713747 39.275903,7.2005388 38.625886,7.3102926 C 37.237078,7.7140453 37.829175,5.8438983 37.714819,5.006957 C 37.983881,4.2600005 38.752261,3.9934859 37.504194,3.6582606 C 36.973913,2.2914552 36.78435,4.2456631 35.786001,3.9727096 C 36.048995,4.2639441 36.823785,4.7816171 36.488388,5.6064018 C 36.318286,6.1675048 36.917708,7.498195 36.008473,7.3201828 C 35.237003,7.2545972 34.338814,7.4499116 33.644267,7.2258767 C 33.131442,6.292506 32.60219,7.9966257 32.242011,8.1747352 C 33.266117,8.4177149 32.953099,10.265025 33.882022,8.6527446 C 35.1559,8.3974708 37.051866,8.2082235 36.488388,9.9987165 C 36.479459,10.680523 36.67589,11.4621 35.905907,11.774254 C 36.578992,11.762767 37.139035,13.76024 37.468651,12.637004 z "
       id="path2197" />
  </g>
</svg>
